# xmcd
#
# Track frame offsets:
# 150
# 17197
# 30699
# 47751
# 62577
# 81593
# 97838
# 112053
# 130666
# 147885
#
# Disc length: 2284 seconds
#
#
# Revision: 0
# Processed by: cddbd v1.5.2PL0 Copyright (c) Steve Scherf et al.
# Submitted via: FreeRIP 2.944 
#
DISCID=8408ea0a
DTITLE=Claus and Vanessa - 
DYEAR=1900
DGENRE=Pop
TTITLE0=A Fonte Secou
TTITLE1=Medo de Amar
TTITLE2=Sorte ou Azar
TTITLE3=Amor Se Voce For Embora
TTITLE4=Teu Cheiro
TTITLE5=Vamos Combinar
TTITLE6=Equilibrio Necessario
TTITLE7=Te Peço Pra Ficar
TTITLE8=Coração
TTITLE9=A Fonte Secou Remix
EXTD=
EXTT0=
EXTT1=
EXTT2=
EXTT3=
EXTT4=
EXTT5=
EXTT6=
EXTT7=
EXTT8=
EXTT9=
PLAYORDER=
